<?xml version="1.0" encoding="UTF-8"?>
<svg version="1.1" xmlns="http://www.w3.org/2000/svg" width="1024" height="1024">
<path d="M0 0 C337.92 0 675.84 0 1024 0 C1024 337.92 1024 675.84 1024 1024 C686.08 1024 348.16 1024 0 1024 C0 686.08 0 348.16 0 0 Z " fill="#0F0F0F" transform="translate(0,0)"/>
<path d="M0 0 C-0.00775137 0.88916579 -0.01550274 1.77833158 -0.023489 2.6944418 C-0.20818346 24.44247057 -0.31387121 46.18967253 -0.33421898 67.9384985 C-0.34591728 78.45673601 -0.38326024 88.97365688 -0.48339844 99.49145508 C-0.57072698 108.67093228 -0.60747176 117.84906432 -0.58627188 127.02895457 C-0.57676294 131.87946015 -0.59067467 136.72707064 -0.66541672 141.57707024 C-0.99273385 164.01746109 -0.36872165 180.56002209 13.14821815 199.31193352 C16.45472603 204.11169598 19.15887156 209.25791102 21.9375 214.375 C22.58736431 215.54003227 23.23899976 216.70408263 23.89404297 217.86621094 C28.77451575 226.58433369 33.62096448 235.32118519 38.46679688 244.05859375 C42.42291771 251.18371085 46.41520595 258.28706225 50.4375 265.375 C57.14314411 277.19580692 63.69596287 289.09940686 70.24890137 301.00523376 C72.96890899 305.94629446 75.69872211 310.88182217 78.4375 315.8125 C78.82236572 316.50641846 79.20723145 317.20033691 79.60375977 317.9152832 C81.58444644 321.47983726 83.58427841 325.0324587 85.60546875 328.57421875 C86.23980835 329.6892981 86.23980835 329.6892981 86.88696289 330.8269043 C87.69093538 332.23809719 88.49851365 333.64724415 89.31030273 335.05395508 C92 339.77760962 92 339.77760962 92 342 C26.66 342 -38.68 342 -106 342 C-106 333.42 -106 324.84 -106 316 C-98.08 316 -90.16 316 -82 316 C-81.79039387 300.16756383 -81.64579851 284.33856615 -81.61396885 268.50500011 C-81.59719569 261.14988418 -81.55333371 253.79695824 -81.44116211 246.44262695 C-81.34324109 240.0177759 -81.30076016 233.59511292 -81.31963962 227.16950876 C-81.32780425 223.77812117 -81.30352237 220.39534044 -81.22885323 217.00420189 C-80.80898356 196.79759888 -85.23538929 183.69929763 -96.05163383 167.06580544 C-99.29118432 161.9682875 -102.15713726 156.66747774 -105.0625 151.375 C-106.21686537 149.3114446 -107.37288962 147.24881549 -108.53125 145.1875 C-110.86699393 141.02217787 -113.20026468 136.855487 -115.53125 132.6875 C-124.62759229 116.42476086 -133.74063705 100.17065778 -143 84 C-148.16705411 84.63594512 -152.59163111 86.21916281 -157.390625 88.125 C-158.56936188 88.58543701 -158.56936188 88.58543701 -159.77191162 89.05517578 C-162.26677455 90.03135906 -164.75834343 91.01566563 -167.25 92 C-168.93990357 92.66197066 -170.63000582 93.32343433 -172.3203125 93.984375 C-179.75627765 96.77506643 -179.75627765 96.77506643 -187 100 C-187.33 171.28 -187.66 242.56 -188 316 C-180.08 316 -172.16 316 -164 316 C-164 324.58 -164 333.16 -164 342 C-206.9 342 -249.8 342 -294 342 C-294 333.42 -294 324.84 -294 316 C-286.08 316 -278.16 316 -270 316 C-270 255.28 -270 194.56 -270 132 C-299.90629892 143.28399352 -299.90629892 143.28399352 -329.66796875 154.9609375 C-333.66458126 156.54253354 -337.7002813 157.87662318 -341.80078125 159.1640625 C-357.17092891 163.94418249 -357.17092891 163.94418249 -367.375 175.6875 C-368.34817094 177.70451019 -369.24511316 179.71019906 -370.04052734 181.8034668 C-371 184 -371 184 -373.02584839 186.87045288 C-375.98111417 192.04975702 -375.57149011 197.45090967 -375.54589844 203.26928711 C-375.56140495 205.09961487 -375.56140495 205.09961487 -375.57722473 206.96691895 C-375.60158198 210.2951801 -375.6084919 213.62260312 -375.60750484 216.95089412 C-375.6106434 220.43565414 -375.63628107 223.92024871 -375.65948486 227.40492249 C-375.69997662 233.99559874 -375.72036942 240.58617623 -375.73345876 247.17695767 C-375.74935203 254.68371607 -375.78777736 262.19030694 -375.82805204 269.69696796 C-375.91035761 285.13128774 -375.96153395 300.56549924 -376 316 C-368.08 316 -360.16 316 -352 316 C-352 324.58 -352 333.16 -352 342 C-417.34 342 -482.68 342 -550 342 C-549.16293328 338.65173313 -548.35668993 336.55607767 -546.734375 333.60546875 C-546.26338379 332.7446167 -545.79239258 331.88376465 -545.30712891 330.99682617 C-544.5363501 329.60620972 -544.5363501 329.60620972 -543.75 328.1875 C-543.2142334 327.21337158 -542.6784668 326.23924316 -542.12646484 325.2355957 C-537.26609786 316.42326898 -532.31409515 307.66299935 -527.34765625 298.91015625 C-522.11196868 289.67893369 -516.9418414 280.41090846 -511.76171875 271.1484375 C-510.01988075 268.03552967 -508.2759451 264.92380728 -506.53125 261.8125 C-500.47636329 251.01299792 -494.44256081 240.20229494 -488.4375 229.375 C-484.80241078 222.82225484 -481.16096284 216.27347015 -477.48046875 209.74609375 C-476.92141846 208.75391846 -476.36236816 207.76174316 -475.78637695 206.73950195 C-474.68927782 204.80664061 -473.58250419 202.8792348 -472.46557617 200.95776367 C-470.07760401 196.83069708 -467.83978948 192.7995256 -466.0703125 188.3671875 C-462.9300267 180.82878086 -459.54677603 176.60782225 -451.94897461 173.31616211 C-448.13182576 171.85522336 -444.28102415 170.51168149 -440.40602112 169.21229553 C-431.58911066 166.23695979 -422.96664912 162.74685302 -414.30722046 159.34667969 C-408.99244229 157.2654174 -403.66807401 155.20903666 -398.34375 153.15234375 C-397.25370163 152.73105194 -396.16365326 152.30976013 -395.04057312 151.8757019 C-381.65560773 146.70465483 -368.26124666 141.55802283 -354.86679077 136.41162109 C-336.26774745 129.26522626 -317.68943599 122.06732384 -299.1260376 114.82891846 C-292.48069186 112.23797193 -285.83443908 109.64935601 -279.1875 107.0625 C-278.44406342 106.77315582 -277.70062683 106.48381165 -276.93466187 106.18569946 C-265.40476638 101.69965919 -253.86191035 97.24802905 -242.3125 92.8125 C-212.23456953 81.26035278 -182.19813211 69.60080293 -152.1875 57.875 C-120.75337333 45.5944441 -89.26008176 33.46909483 -57.73950195 21.41235352 C-44.92543063 16.50990175 -32.12172034 11.58162141 -19.33276367 6.61401367 C-16.22290126 5.40658225 -13.11176854 4.20250843 -10 3 C-9.17226074 2.67757324 -8.34452148 2.35514648 -7.49169922 2.02294922 C-2.23014834 0 -2.23014834 0 0 0 Z " fill="#FCFCFB" transform="translate(741,444)"/>
<path d="M0 0 C0.66 0 1.32 0 2 0 C2.57105469 1.10472656 3.14210938 2.20945313 3.73046875 3.34765625 C9.45561098 14.35809981 15.44335436 25.19587283 21.58203125 35.98046875 C24.4794164 41.0710539 27.33864722 46.18202016 30.18896484 51.29907227 C35.40184513 60.65561738 40.6977603 69.95356116 46.125 79.1875 C51.09043839 87.64015848 55.87714161 96.16919177 60.53833008 104.79296875 C64.57876172 112.26085629 68.73899542 119.65553981 72.93164062 127.03881836 C77.18797663 134.54231462 81.38316946 142.07838087 85.5625 149.625 C90.97228271 159.38686366 96.45738981 169.10106266 102.01171875 178.78125 C105.34379008 184.59090099 108.64260477 190.41920384 111.9375 196.25 C112.46939941 197.19069336 113.00129883 198.13138672 113.54931641 199.10058594 C116.72349864 204.72054852 119.87407368 210.35305353 123 216 C129.18662393 215.38871518 134.60389049 212.93187795 140.3125 210.625 C142.80935428 209.6301209 145.3067228 208.63661201 147.8046875 207.64453125 C148.49705002 207.36894882 149.18941254 207.09336639 149.90275574 206.80943298 C159.48288205 203.00215734 169.0988144 199.28649071 178.71151733 195.56243896 C181.85730326 194.34357302 185.00254635 193.12331533 188.14770508 191.90283203 C193.11606377 189.97561834 198.08683219 188.05472122 203.05877686 186.13677979 C206.06453868 184.97505587 209.06766099 183.80666654 212.07080078 182.63818359 C213.98589458 181.89783248 215.90109198 181.1577493 217.81640625 180.41796875 C218.70013412 180.07228348 219.583862 179.72659821 220.49436951 179.37043762 C221.30777298 179.05765366 222.12117645 178.74486969 222.95922852 178.42260742 C223.67015152 178.14672287 224.38107452 177.87083832 225.11354065 177.58659363 C227 177 227 177 230 177 C230 185.91 230 194.82 230 204 C206.58355041 213.17186975 183.13987264 222.26910496 159.66156006 231.28149414 C145.04790393 236.89196796 130.45067865 242.54161859 115.875 248.25 C102.44355093 253.5095171 88.98524041 258.69250309 75.5 263.8125 C43.37033048 276.01359264 11.35205343 288.50120297 -20.64401245 301.04782104 C-38.19428325 307.92723171 -55.78361837 314.7027945 -73.38134766 321.4597168 C-88.32629189 327.19859816 -103.26202112 332.96067497 -118.1875 338.75 C-119.19778259 339.14185486 -120.20806519 339.53370972 -121.2489624 339.93743896 C-136.35173341 345.79677188 -151.4446986 351.68105597 -166.53329468 357.57678223 C-177.32489648 361.79325655 -188.12592397 365.98300759 -198.94506836 370.12841797 C-211.88247459 375.09328848 -224.78491715 380.14834324 -237.69140625 385.19290161 C-239.34480402 385.83878033 -240.99844688 386.484032 -242.65234375 387.12863159 C-246.82296586 388.7546109 -250.98904311 390.39089944 -255.1484375 392.04541016 C-255.97448486 392.37197098 -256.80053223 392.6985318 -257.65161133 393.0349884 C-259.22078913 393.65545918 -260.78842748 394.27984221 -262.35424805 394.90873718 C-265.38026513 396.10101389 -267.71653782 397 -271 397 C-271 388.09 -271 379.18 -271 370 C-260.20392191 365.78449283 -249.40720614 361.57063112 -238.60945129 357.35942078 C-233.06125419 355.19526605 -227.51411308 353.0284383 -221.9680481 350.85882568 C-218.65923283 349.56486415 -215.34966207 348.27284332 -212.03991699 346.98126221 C-210.47634748 346.37059302 -208.91311254 345.75906647 -207.35021973 345.14666748 C-205.17574988 344.2947658 -203.00013124 343.44586504 -200.82421875 342.59765625 C-199.59791748 342.11820557 -198.37161621 341.63875488 -197.1081543 341.14477539 C-194 340 -194 340 -191.74926758 339.62573242 C-189.0415068 338.65713635 -188.48195235 336.89839328 -187.1875 334.390625 C-186.67582275 333.41939697 -186.16414551 332.44816895 -185.63696289 331.44750977 C-185.09676514 330.39233154 -184.55656738 329.33715332 -184 328.25 C-182.83412006 326.034056 -181.66611206 323.81923048 -180.49609375 321.60546875 C-179.90940918 320.48962402 -179.32272461 319.3737793 -178.71826172 318.22412109 C-176.26151517 313.6143179 -173.67616856 309.08465219 -171.0625 304.5625 C-166.67673915 296.94539373 -162.34942093 289.29819354 -158.0625 281.625 C-150.1667007 267.50044832 -142.2449019 253.39086688 -134.19140625 239.35546875 C-132.85656281 237.02876476 -131.52180928 234.70201026 -130.1875 232.375 C-129.85369324 231.79284729 -129.51988647 231.21069458 -129.17596436 230.61090088 C-123.59330732 220.86619314 -118.13932115 211.05484579 -112.73330688 201.21124268 C-108.04510987 192.6761927 -103.28754923 184.18625112 -98.43432617 175.74389648 C-94.59687711 169.06350862 -90.8206344 162.35029944 -87.0625 155.625 C-82.5622021 147.5715757 -78.04550796 139.52799822 -73.5 131.5 C-66.62617187 119.35595856 -59.81098024 107.17937007 -53 95 C-46.18901808 82.82062693 -39.37338156 70.64429643 -32.5 58.5 C-21.51414391 39.08239901 -10.62951082 19.61531328 0 0 Z " fill="#FBFBFB" transform="translate(511,212)"/>
<path d="M0 0 C0.66 0 1.32 0 2 0 C2.4218457 0.76852295 2.84369141 1.5370459 3.27832031 2.32885742 C10.61696846 15.68913913 17.96798428 29.03737764 25.56396484 42.25366211 C32.41251656 54.17815857 39.08624829 66.20133009 45.79101562 78.20703125 C51.79524897 88.95559323 57.80811038 99.69720187 63.9375 110.375 C69.15655131 119.46873522 74.25736635 128.62568223 79.33227539 137.80053711 C82.45972234 143.44916756 85.60705746 149.08437793 88.80859375 154.69140625 C89.40937744 155.74473145 90.01016113 156.79805664 90.62915039 157.88330078 C91.76612297 159.87232707 92.9070407 161.85910507 94.05249023 163.84326172 C94.81154663 165.17188232 94.81154663 165.17188232 95.5859375 166.52734375 C96.0298584 167.29812256 96.4737793 168.06890137 96.93115234 168.86303711 C97.95724961 170.91452852 98.54533285 172.759413 99 175 C98.41508789 175.20157715 97.83017578 175.4031543 97.22753906 175.61083984 C94.56737162 176.52939429 91.90868088 177.45215209 89.25 178.375 C88.32960938 178.69210937 87.40921875 179.00921875 86.4609375 179.3359375 C85.57148437 179.6453125 84.68203125 179.9546875 83.765625 180.2734375 C82.94868164 180.55622559 82.13173828 180.83901367 81.29003906 181.13037109 C78.99010642 181.95125413 78.99010642 181.95125413 76.88964844 183.10791016 C75 184 75 184 72 184 C71.61368408 183.30253662 71.22736816 182.60507324 70.8293457 181.88647461 C63.55211354 168.75350417 56.2525471 155.63490251 48.84912109 142.57250977 C44.85371453 135.52046468 40.89095807 128.45063461 36.9375 121.375 C32.66303895 113.72781835 28.35790726 106.09993387 24 98.5 C19.4269899 90.5175956 14.88627459 82.51747054 10.375 74.5 C9.77042969 73.43072266 9.16585937 72.36144531 8.54296875 71.25976562 C7.69798828 69.75446289 7.69798828 69.75446289 6.8359375 68.21875 C6.33626465 67.33123047 5.8365918 66.44371094 5.32177734 65.52929688 C4.03499095 63.06695719 2.98282538 60.59675882 2 58 C1.34 58 0.68 58 0 58 C-0.2774707 58.72405029 -0.55494141 59.44810059 -0.84082031 60.1940918 C-2.79113775 64.91502658 -5.31216296 69.32876803 -7.75 73.8125 C-8.32564697 74.8742041 -8.90129395 75.9359082 -9.49438477 77.02978516 C-14.06174585 85.39906229 -18.84091927 93.62964799 -23.6875 101.83935547 C-28.69595195 110.36954872 -33.38087619 119.05475034 -38.03320312 127.78295898 C-41.5789222 134.41622562 -45.24512364 140.94197764 -49.10913086 147.39379883 C-53.32626807 154.46883067 -57.29842202 161.6769108 -61.28533936 168.88345337 C-65.67518533 176.81788608 -70.09121268 184.73610705 -74.5625 192.625 C-79.0415486 200.53017117 -83.49999151 208.44642953 -87.9375 216.375 C-88.51024658 217.39746826 -89.08299316 218.41993652 -89.6730957 219.47338867 C-92.43535872 224.40696744 -95.19262665 229.34322221 -97.93727112 234.28662109 C-98.91227812 236.04209424 -99.88886735 237.79668831 -100.86547852 239.55126953 C-102.09922443 241.76814423 -103.3302876 243.98651457 -104.55834961 246.20654297 C-105.11143799 247.19928223 -105.66452637 248.19202148 -106.234375 249.21484375 C-106.96479004 250.53150024 -106.96479004 250.53150024 -107.70996094 251.87475586 C-110.22702935 256.0214403 -113.32281624 257.00598069 -117.6875 258.5625 C-122.85907301 260.44235279 -127.99736816 262.38262396 -133.10546875 264.4296875 C-134.66164917 265.05121704 -134.66164917 265.05121704 -136.24926758 265.68530273 C-138.3204187 266.515025 -140.38931083 267.35041027 -142.45581055 268.19165039 C-143.88147339 268.7600061 -143.88147339 268.7600061 -145.3359375 269.33984375 C-146.18720215 269.68394287 -147.0384668 270.02804199 -147.91552734 270.38256836 C-150 271 -150 271 -152 270 C-151.67950684 269.43418213 -151.35901367 268.86836426 -151.02880859 268.28540039 C-149.47693214 265.54477668 -147.92585357 262.80370267 -146.375 260.0625 C-145.79032959 259.02923584 -145.20565918 257.99597168 -144.60327148 256.93139648 C-141.55862346 251.54539751 -138.52355832 246.1544224 -135.51171875 240.75 C-129.75311222 230.41797428 -123.93654474 220.13212925 -117.9375 209.9375 C-112.67651486 200.99067498 -107.66088879 191.93599943 -102.75366211 182.79101562 C-97.83822472 173.64643309 -92.69630347 164.64252218 -87.51806641 155.64501953 C-79.41163186 141.52068503 -71.48487452 127.29540472 -63.58886719 113.05273438 C-59.0469388 104.86651039 -54.45921759 96.7074428 -49.84375 88.5625 C-45.87357804 81.55403018 -41.93122809 74.53038144 -38 67.5 C-32.99603079 58.55235909 -27.96516733 49.62046183 -22.91430664 40.69921875 C-18.13895283 32.25899065 -13.39919518 23.79901533 -8.66796875 15.33398438 C-5.80236975 10.20871327 -2.92486748 5.09170085 0 0 Z " fill="#0D0D0D" transform="translate(511,265)"/>
<path d="M0 0 C0 92.07 0 184.14 0 279 C-10.23 279 -20.46 279 -31 279 C-31 190.56 -31 102.12 -31 11 C-3 0 -3 0 0 0 Z " fill="#0C0C0C" transform="translate(716,481)"/>
<path d="M0 0 C0.66 0 1.32 0 2 0 C2.38631592 0.69746338 2.77263184 1.39492676 3.1706543 2.11352539 C10.4421632 15.23616725 17.73620862 28.34432141 25.13330078 41.39672852 C29.89587729 49.80347544 34.61839437 58.23236998 39.33227539 66.66650391 C39.88391357 67.65312012 40.43555176 68.63973633 41.00390625 69.65625 C41.51969238 70.58050781 42.03547852 71.50476563 42.56689453 72.45703125 C43.82197977 74.68411265 45.10684052 76.89008821 46.40234375 79.09375 C48 82 48 82 48 84 C42.3550345 86.21055518 36.70908058 88.41857362 31.0625 90.625 C30.17696442 90.97103271 29.29142883 91.31706543 28.37905884 91.67358398 C16.35912075 96.36842851 4.32941106 101.03743126 -7.7109375 105.6796875 C-8.64825179 106.04112791 -8.64825179 106.04112791 -9.60450172 106.40987015 C-16.41816646 109.03715702 -23.23283471 111.66181631 -30.04858398 114.28369141 C-32.37232461 115.17847325 -34.69597564 116.07348781 -37.01953125 116.96875 C-38.68655342 117.61074844 -38.68655342 117.61074844 -40.38725281 118.26571655 C-48.32217279 121.33012407 -56.22681163 124.46515455 -64.09785461 127.69030762 C-69.78644725 130 -69.78644725 130 -72 130 C-70.73437471 126.70451621 -69.32960659 123.60450169 -67.63671875 120.5078125 C-67.16862793 119.64961914 -66.70053711 118.79142578 -66.21826172 117.90722656 C-65.46053467 116.53002441 -65.46053467 116.53002441 -64.6875 115.125 C-64.15914551 114.16045898 -63.63079102 113.19591797 -63.08642578 112.20214844 C-58.16483355 103.24459009 -53.13418935 94.34974542 -48.08984375 85.4609375 C-45.34232046 80.61535165 -42.6322634 75.75007196 -39.9375 70.875 C-36.42796516 64.53160441 -32.85627366 58.22637442 -29.25 51.9375 C-22.95557124 40.96063033 -16.7788103 29.91915115 -10.60693359 18.87304688 C-8.28635614 14.72407157 -5.95695768 10.58008714 -3.625 6.4375 C-3.24964111 5.77065186 -2.87428223 5.10380371 -2.48754883 4.41674805 C-1.65857813 2.94437918 -0.82932832 1.47216746 0 0 Z " fill="#0C0C0C" transform="translate(511,375)"/>
<path d="M0 0 C0 67.98 0 135.96 0 206 C-9.9 206 -19.8 206 -30 206 C-30 141.65 -30 77.3 -30 11 C-3 0 -3 0 0 0 Z " fill="#0A0A0A" transform="translate(527,554)"/>
<path d="M0 0 C0 43.89 0 87.78 0 133 C-10.23 133 -20.46 133 -31 133 C-31 92.74 -31 52.48 -31 11 C-3.5 0 -3.5 0 0 0 Z " fill="#0D0E0D" transform="translate(339,627)"/>
<path d="M0 0 C0.66 0 1.32 0 2 0 C2.40613525 0.73710205 2.81227051 1.4742041 3.23071289 2.23364258 C10.70107634 15.78918505 18.17724275 29.34150853 25.6875 42.875 C26.2969043 43.97392578 26.90630859 45.07285156 27.53417969 46.20507812 C30.57867927 51.68420418 33.64669984 57.14823372 36.7578125 62.58984375 C37.35634033 63.63865723 37.95486816 64.6874707 38.5715332 65.76806641 C39.69802834 67.73797167 40.82908017 69.70528114 41.96557617 71.66943359 C42.46806885 72.54809082 42.97056152 73.42674805 43.48828125 74.33203125 C43.92696533 75.09233643 44.36564941 75.8526416 44.81762695 76.63598633 C46 79 46 79 48 85 C32.16 85 16.32 85 0 85 C0 56.95 0 28.9 0 0 Z " fill="#0E0F0E" transform="translate(741,675)"/>
<path d="M0 0 C0.33 0 0.66 0 1 0 C1 28.38 1 56.76 1 86 C-14.84 86 -30.68 86 -47 86 C-45.52369266 81.57107799 -44.21071316 78.28908157 -41.98046875 74.31640625 C-41.3771875 73.23617187 -40.77390625 72.1559375 -40.15234375 71.04296875 C-39.50394531 69.89441406 -38.85554687 68.74585938 -38.1875 67.5625 C-37.50739258 66.34919362 -36.82771111 65.13564839 -36.1484375 63.921875 C-34.10632043 60.27708377 -32.0545355 56.63780234 -30 53 C-29.42717285 51.98534668 -28.8543457 50.97069336 -28.26416016 49.92529297 C-26.15896384 46.1991526 -24.05234867 42.4738324 -21.94091797 38.7512207 C-18.91152999 33.40477543 -15.90655954 28.04552572 -12.92578125 22.671875 C-12.58259857 22.05320557 -12.23941589 21.43453613 -11.88583374 20.79711914 C-10.20409431 17.7638251 -8.52465521 14.72927663 -6.84765625 11.69335938 C-6.244375 10.60345703 -5.64109375 9.51355469 -5.01953125 8.390625 C-4.21672729 6.9370459 -4.21672729 6.9370459 -3.39770508 5.45410156 C-2.33765248 3.59285288 -1.18814117 1.78221176 0 0 Z " fill="#111111" transform="translate(282,674)"/>
<path d="M0 0 C10.45015345 13.12601715 8.95627144 28.43692134 8.54931641 44.30725098 C8.46643425 47.88739082 8.43072238 51.46799883 8.390625 55.04882812 C8.30566457 62.03368111 8.1697317 69.01670477 8 76 C5.09196602 72.43518607 2.72910364 68.95336631 0.53125 64.90625 C0.21408524 64.32619705 -0.10307953 63.7461441 -0.42985535 63.14851379 C-1.10701707 61.9091824 -1.78207076 60.66869719 -2.45516968 59.42715454 C-4.22737062 56.15838926 -6.01444643 52.89777526 -7.80078125 49.63671875 C-8.15727249 48.98511276 -8.51376373 48.33350677 -8.88105774 47.66215515 C-12.52688896 41.0115002 -16.29178804 34.43074865 -20.10546875 27.875 C-23.29670033 22.35528258 -26.20575921 16.73063811 -29 11 C-22.308102 8.18882698 -15.60339399 5.41017901 -8.875 2.6875 C-8.22394287 2.42114746 -7.57288574 2.15479492 -6.90209961 1.88037109 C-2.23080346 0 -2.23080346 0 0 0 Z " fill="#0A0B0A" transform="translate(651,506)"/>
<path d="M0 0 C0.33 0 0.66 0 1 0 C1 15.18 1 30.36 1 46 C-0.485 46.495 -0.485 46.495 -2 47 C-4.10474182 44.89525818 -3.18859889 40.27189426 -3.203125 37.36328125 C-3.20882507 36.49108444 -3.21452515 35.61888763 -3.22039795 34.72026062 C-3.22986604 32.86828836 -3.23638908 31.01629911 -3.24023438 29.16430664 C-3.24990016 26.34165541 -3.28088942 23.51974452 -3.3125 20.69726562 C-3.31903385 18.89844183 -3.32428282 17.09961281 -3.328125 15.30078125 C-3.3404718 14.45993484 -3.3528186 13.61908844 -3.36553955 12.75276184 C-3.34664483 7.73396347 -2.69088215 4.39910387 0 0 Z " fill="#040504" transform="translate(526,698)"/>
<path d="M0 0 C-1.2491742 3.45925163 -2.67527795 6.14693203 -5 9 C-5.66 8.01 -6.32 7.02 -7 6 C-5.52522876 2.59668175 -4.14385429 0 0 0 Z " fill="#1A1A1A" transform="translate(371,462)"/>
<path d="M0 0 C0.33 0 0.66 0 1 0 C1 2.64 1 5.28 1 8 C-0.32 7.67 -1.64 7.34 -3 7 C-1.125 1.125 -1.125 1.125 0 0 Z " fill="#131313" transform="translate(281,676)"/>
<path d="M0 0 C-0.33 1.65 -0.66 3.3 -1 5 C-2.32 5 -3.64 5 -5 5 C-5 4.34 -5 3.68 -5 3 C-5.66 2.67 -6.32 2.34 -7 2 C-2.25 0 -2.25 0 0 0 Z " fill="#252524" transform="translate(314,581)"/>
<path d="M0 0 C1.65 0 3.3 0 5 0 C5.33 0.66 5.66 1.32 6 2 C3.36 2.66 0.72 3.32 -2 4 C-1.34 2.68 -0.68 1.36 0 0 Z " fill="#1C1D1E" transform="translate(247,576)"/>
<path d="M0 0 C-0.33 1.32 -0.66 2.64 -1 4 C-1 3.34 -1 2.68 -1 2 C-1.66 2 -2.32 2 -3 2 C-3 2.66 -3 3.32 -3 4 C-4.65 3.67 -6.3 3.34 -8 3 C-5.22569089 1.15046059 -3.35957737 0 0 0 Z " fill="#1F1F1F" transform="translate(503,508)"/>
<path d="M0 0 C0.99 0 1.98 0 3 0 C3.33 0.99 3.66 1.98 4 3 C2.02 3.66 0.04 4.32 -2 5 C-1.125 1.125 -1.125 1.125 0 0 Z " fill="#1F1F1F" transform="translate(641,423)"/>
<path d="M0 0 C0.99 0 1.98 0 3 0 C2.50168276 3.68754757 1.89932357 5.60490662 -1 8 C-0.67 5.36 -0.34 2.72 0 0 Z " fill="#181819" transform="translate(432,347)"/>
</svg>
